P3
3 2
255
239 178 197 255 255 255 255 229 247 
222 171 194 228 171 198 236 183 209 